<mxfile host="app.diagrams.net" agent="Mozilla/5.0 (Windows NT 10.0; Win64; x64) AppleWebKit/537.36 (KHTML, like Gecko) Chrome/138.0.0.0 Safari/537.36" scale="1" border="0" version="27.1.4">
  <diagram name="Page-1" id="m3I03_O3gcfQzW6MR2eh">
    <mxGraphModel dx="1025" dy="464" grid="1" gridSize="10" guides="1" tooltips="1" connect="1" arrows="1" fold="1" page="1" pageScale="1" pageWidth="850" pageHeight="1100" math="0" shadow="0">
      <root>
        <mxCell id="0" />
        <mxCell id="1" parent="0" />
        <mxCell id="jExTutRzoDzdWUAHHNwO-1" value="Filtering metadata" style="rounded=1;whiteSpace=wrap;html=1;absoluteArcSize=1;arcSize=14;strokeWidth=2;fillColor=#dae8fc;strokeColor=#6c8ebf;" parent="1" vertex="1">
          <mxGeometry x="140" y="270" width="100" height="100" as="geometry" />
        </mxCell>
        <mxCell id="jExTutRzoDzdWUAHHNwO-21" style="edgeStyle=orthogonalEdgeStyle;rounded=0;orthogonalLoop=1;jettySize=auto;html=1;entryX=0.5;entryY=1;entryDx=0;entryDy=0;" parent="1" source="jExTutRzoDzdWUAHHNwO-5" target="jExTutRzoDzdWUAHHNwO-1" edge="1">
          <mxGeometry relative="1" as="geometry" />
        </mxCell>
        <mxCell id="jExTutRzoDzdWUAHHNwO-5" value="Criteria table" style="strokeWidth=2;html=1;shape=mxgraph.flowchart.document2;whiteSpace=wrap;size=0.25;fillColor=#e1d5e7;strokeColor=#9673a6;" parent="1" vertex="1">
          <mxGeometry x="140" y="410" width="100" height="60" as="geometry" />
        </mxCell>
        <mxCell id="jExTutRzoDzdWUAHHNwO-8" style="edgeStyle=orthogonalEdgeStyle;rounded=0;orthogonalLoop=1;jettySize=auto;html=1;entryX=0;entryY=0.5;entryDx=0;entryDy=0;" parent="1" source="jExTutRzoDzdWUAHHNwO-6" target="jExTutRzoDzdWUAHHNwO-1" edge="1">
          <mxGeometry relative="1" as="geometry" />
        </mxCell>
        <mxCell id="jExTutRzoDzdWUAHHNwO-6" value="Taxon name" style="html=1;strokeWidth=2;shape=manualInput;whiteSpace=wrap;rounded=1;size=26;arcSize=11;fillColor=#e1d5e7;strokeColor=#9673a6;" parent="1" vertex="1">
          <mxGeometry x="10" y="290" width="100" height="60" as="geometry" />
        </mxCell>
        <mxCell id="jExTutRzoDzdWUAHHNwO-14" value="Fetching data relevant for processing if first time running" style="rounded=1;whiteSpace=wrap;html=1;absoluteArcSize=1;arcSize=14;strokeWidth=2;fillColor=#dae8fc;strokeColor=#6c8ebf;" parent="1" vertex="1">
          <mxGeometry x="140" y="40" width="100" height="100" as="geometry" />
        </mxCell>
        <mxCell id="jExTutRzoDzdWUAHHNwO-15" value="assembly_ftp_&lt;div&gt;file.txt&lt;/div&gt;" style="strokeWidth=2;html=1;shape=mxgraph.flowchart.document2;whiteSpace=wrap;size=0.25;fillColor=#d5e8d4;strokeColor=#82b366;" parent="1" vertex="1">
          <mxGeometry x="30" y="180" width="100" height="60" as="geometry" />
        </mxCell>
        <mxCell id="jExTutRzoDzdWUAHHNwO-16" value="checklist.chk" style="strokeWidth=2;html=1;shape=mxgraph.flowchart.document2;whiteSpace=wrap;size=0.25;fillColor=#d5e8d4;strokeColor=#82b366;" parent="1" vertex="1">
          <mxGeometry x="250" y="180" width="100" height="60" as="geometry" />
        </mxCell>
        <mxCell id="jExTutRzoDzdWUAHHNwO-17" style="edgeStyle=orthogonalEdgeStyle;rounded=0;orthogonalLoop=1;jettySize=auto;html=1;entryX=0.5;entryY=0;entryDx=0;entryDy=0;entryPerimeter=0;" parent="1" source="jExTutRzoDzdWUAHHNwO-14" target="jExTutRzoDzdWUAHHNwO-16" edge="1">
          <mxGeometry relative="1" as="geometry">
            <Array as="points">
              <mxPoint x="190" y="160" />
              <mxPoint x="300" y="160" />
            </Array>
          </mxGeometry>
        </mxCell>
        <mxCell id="jExTutRzoDzdWUAHHNwO-22" style="edgeStyle=orthogonalEdgeStyle;rounded=0;orthogonalLoop=1;jettySize=auto;html=1;entryX=0.5;entryY=0;entryDx=0;entryDy=0;" parent="1" source="jExTutRzoDzdWUAHHNwO-18" target="jExTutRzoDzdWUAHHNwO-1" edge="1">
          <mxGeometry relative="1" as="geometry" />
        </mxCell>
        <mxCell id="jExTutRzoDzdWUAHHNwO-18" value="metadata_file.txt" style="strokeWidth=2;html=1;shape=mxgraph.flowchart.document2;whiteSpace=wrap;size=0.25;fillColor=#d5e8d4;strokeColor=#82b366;" parent="1" vertex="1">
          <mxGeometry x="140" y="180" width="100" height="60" as="geometry" />
        </mxCell>
        <mxCell id="jExTutRzoDzdWUAHHNwO-19" style="edgeStyle=orthogonalEdgeStyle;rounded=0;orthogonalLoop=1;jettySize=auto;html=1;entryX=0.5;entryY=0;entryDx=0;entryDy=0;entryPerimeter=0;" parent="1" source="jExTutRzoDzdWUAHHNwO-14" target="jExTutRzoDzdWUAHHNwO-18" edge="1">
          <mxGeometry relative="1" as="geometry" />
        </mxCell>
        <mxCell id="jExTutRzoDzdWUAHHNwO-20" style="edgeStyle=orthogonalEdgeStyle;rounded=0;orthogonalLoop=1;jettySize=auto;html=1;entryX=0.5;entryY=0;entryDx=0;entryDy=0;entryPerimeter=0;" parent="1" source="jExTutRzoDzdWUAHHNwO-14" target="jExTutRzoDzdWUAHHNwO-15" edge="1">
          <mxGeometry relative="1" as="geometry">
            <Array as="points">
              <mxPoint x="190" y="160" />
              <mxPoint x="80" y="160" />
            </Array>
          </mxGeometry>
        </mxCell>
        <mxCell id="jExTutRzoDzdWUAHHNwO-23" value="ids_failed_&lt;div&gt;criteria.tsv&lt;/div&gt;" style="strokeWidth=2;html=1;shape=mxgraph.flowchart.document2;whiteSpace=wrap;size=0.25;fillColor=#f8cecc;strokeColor=#b85450;" parent="1" vertex="1">
          <mxGeometry x="250" y="390" width="100" height="60" as="geometry" />
        </mxCell>
        <mxCell id="jExTutRzoDzdWUAHHNwO-24" value="assemblies_&lt;div&gt;metadata_&lt;/div&gt;&lt;div&gt;ena661k.tsv&lt;/div&gt;" style="strokeWidth=2;html=1;shape=mxgraph.flowchart.document2;whiteSpace=wrap;size=0.25;fillColor=#d5e8d4;strokeColor=#82b366;" parent="1" vertex="1">
          <mxGeometry x="470" y="390" width="100" height="60" as="geometry" />
        </mxCell>
        <mxCell id="jExTutRzoDzdWUAHHNwO-25" style="edgeStyle=orthogonalEdgeStyle;rounded=0;orthogonalLoop=1;jettySize=auto;html=1;entryX=0.5;entryY=0;entryDx=0;entryDy=0;entryPerimeter=0;" parent="1" target="jExTutRzoDzdWUAHHNwO-24" edge="1">
          <mxGeometry relative="1" as="geometry">
            <Array as="points">
              <mxPoint x="410" y="370" />
              <mxPoint x="520" y="370" />
            </Array>
            <mxPoint x="410" y="350" as="sourcePoint" />
          </mxGeometry>
        </mxCell>
        <mxCell id="jExTutRzoDzdWUAHHNwO-38" style="edgeStyle=orthogonalEdgeStyle;rounded=0;orthogonalLoop=1;jettySize=auto;html=1;entryX=0.5;entryY=0;entryDx=0;entryDy=0;" parent="1" source="jExTutRzoDzdWUAHHNwO-27" target="jExTutRzoDzdWUAHHNwO-36" edge="1">
          <mxGeometry relative="1" as="geometry" />
        </mxCell>
        <mxCell id="jExTutRzoDzdWUAHHNwO-27" value="assemblies_ids_to&lt;div&gt;_download.tsv&lt;/div&gt;" style="strokeWidth=2;html=1;shape=mxgraph.flowchart.document2;whiteSpace=wrap;size=0.25;fillColor=#f8cecc;strokeColor=#b85450;" parent="1" vertex="1">
          <mxGeometry x="360" y="390" width="100" height="60" as="geometry" />
        </mxCell>
        <mxCell id="jExTutRzoDzdWUAHHNwO-28" style="edgeStyle=orthogonalEdgeStyle;rounded=0;orthogonalLoop=1;jettySize=auto;html=1;entryX=0.5;entryY=0;entryDx=0;entryDy=0;entryPerimeter=0;" parent="1" target="jExTutRzoDzdWUAHHNwO-27" edge="1">
          <mxGeometry relative="1" as="geometry">
            <mxPoint x="410" y="350" as="sourcePoint" />
          </mxGeometry>
        </mxCell>
        <mxCell id="jExTutRzoDzdWUAHHNwO-29" style="edgeStyle=orthogonalEdgeStyle;rounded=0;orthogonalLoop=1;jettySize=auto;html=1;entryX=0.5;entryY=0;entryDx=0;entryDy=0;entryPerimeter=0;exitX=1;exitY=0.5;exitDx=0;exitDy=0;" parent="1" source="jExTutRzoDzdWUAHHNwO-1" target="jExTutRzoDzdWUAHHNwO-23" edge="1">
          <mxGeometry relative="1" as="geometry">
            <Array as="points">
              <mxPoint x="410" y="320" />
              <mxPoint x="410" y="370" />
              <mxPoint x="300" y="370" />
            </Array>
            <mxPoint x="410" y="350" as="sourcePoint" />
          </mxGeometry>
        </mxCell>
        <mxCell id="jExTutRzoDzdWUAHHNwO-36" value="Download assemblies" style="rounded=1;whiteSpace=wrap;html=1;absoluteArcSize=1;arcSize=14;strokeWidth=2;fillColor=#dae8fc;strokeColor=#6c8ebf;" parent="1" vertex="1">
          <mxGeometry x="360" y="490" width="100" height="100" as="geometry" />
        </mxCell>
        <mxCell id="jExTutRzoDzdWUAHHNwO-39" value="if&amp;nbsp;--download" style="text;html=1;align=center;verticalAlign=middle;resizable=0;points=[];autosize=1;strokeColor=none;fillColor=none;" parent="1" vertex="1">
          <mxGeometry x="410" y="450" width="90" height="30" as="geometry" />
        </mxCell>
        <mxCell id="jExTutRzoDzdWUAHHNwO-40" value="ena661k_&lt;div&gt;assemblies&lt;/div&gt;" style="strokeWidth=2;html=1;shape=mxgraph.flowchart.multi-document;whiteSpace=wrap;fillColor=#d5e8d4;strokeColor=#82b366;" parent="1" vertex="1">
          <mxGeometry x="366" y="620" width="88" height="60" as="geometry" />
        </mxCell>
        <mxCell id="jExTutRzoDzdWUAHHNwO-41" style="edgeStyle=orthogonalEdgeStyle;rounded=0;orthogonalLoop=1;jettySize=auto;html=1;entryX=0.5;entryY=0;entryDx=0;entryDy=0;entryPerimeter=0;" parent="1" source="jExTutRzoDzdWUAHHNwO-36" target="jExTutRzoDzdWUAHHNwO-40" edge="1">
          <mxGeometry relative="1" as="geometry" />
        </mxCell>
        <mxCell id="jExTutRzoDzdWUAHHNwO-42" value="Processes" style="rounded=0;whiteSpace=wrap;html=1;fillColor=#dae8fc;strokeColor=#6c8ebf;" parent="1" vertex="1">
          <mxGeometry x="670" y="155" width="120" height="60" as="geometry" />
        </mxCell>
        <mxCell id="jExTutRzoDzdWUAHHNwO-43" value="Temporary files" style="rounded=0;whiteSpace=wrap;html=1;fillColor=#f8cecc;strokeColor=#b85450;" parent="1" vertex="1">
          <mxGeometry x="670" y="235" width="120" height="60" as="geometry" />
        </mxCell>
        <mxCell id="jExTutRzoDzdWUAHHNwO-44" value="Input files" style="rounded=0;whiteSpace=wrap;html=1;fillColor=#e1d5e7;strokeColor=#9673a6;" parent="1" vertex="1">
          <mxGeometry x="670" y="75" width="120" height="60" as="geometry" />
        </mxCell>
        <mxCell id="jExTutRzoDzdWUAHHNwO-45" value="Output files" style="rounded=0;whiteSpace=wrap;html=1;fillColor=#d5e8d4;strokeColor=#82b366;" parent="1" vertex="1">
          <mxGeometry x="670" y="315" width="120" height="60" as="geometry" />
        </mxCell>
        <mxCell id="jExTutRzoDzdWUAHHNwO-46" value="Color description:" style="text;html=1;align=center;verticalAlign=middle;resizable=0;points=[];autosize=1;strokeColor=none;fillColor=none;" parent="1" vertex="1">
          <mxGeometry x="560" y="30" width="110" height="30" as="geometry" />
        </mxCell>
        <mxCell id="jExTutRzoDzdWUAHHNwO-47" value="failed_to_&lt;div&gt;download.tsv&lt;/div&gt;" style="strokeWidth=2;html=1;shape=mxgraph.flowchart.document2;whiteSpace=wrap;size=0.25;fillColor=#f8cecc;strokeColor=#b85450;" parent="1" vertex="1">
          <mxGeometry x="230" y="510" width="100" height="60" as="geometry" />
        </mxCell>
        <mxCell id="jExTutRzoDzdWUAHHNwO-48" style="edgeStyle=orthogonalEdgeStyle;rounded=0;orthogonalLoop=1;jettySize=auto;html=1;entryX=1;entryY=0.5;entryDx=0;entryDy=0;entryPerimeter=0;" parent="1" source="jExTutRzoDzdWUAHHNwO-36" target="jExTutRzoDzdWUAHHNwO-47" edge="1">
          <mxGeometry relative="1" as="geometry" />
        </mxCell>
      </root>
    </mxGraphModel>
  </diagram>
</mxfile>
